<svg width="180" height="180" viewBox="0 0 180 180" fill="none" xmlns="http://www.w3.org/2000/svg">
<g clip-path="url(#clip0_161_61)">
<rect width="180" height="180" fill="none"/>
<path d="M112.679 180C75.0398 180 37.5199 180 0 180C0 120 0 60 0 0C60 0 120 0 180 0C180 60 180 120 180 180C157.599 180 135.199 180 112.679 180ZM90.0725 52.7631C91.1505 54.886 92.253 56.9968 93.3022 59.1339C97.4995 67.6833 101.679 76.2416 105.868 84.7948C106.829 86.7561 108.655 87.5894 110.589 86.9677C112.638 86.3092 113.565 84.7629 113.179 82.5236C113.067 81.8699 112.856 81.2095 112.565 80.6137C107.317 69.8868 102.05 59.1693 96.8384 48.2804C96.9713 48.0377 97.0903 47.7861 97.239 47.5536C100.191 42.9413 99.5648 37.1233 95.6978 33.2579C91.9497 29.5115 85.9315 28.8258 81.4839 31.7969C80.1588 32.6821 79.1141 33.9868 77.7343 35.0764C69.6304 34.9813 63.7817 38.4778 60.4599 45.9604C57.2238 53.2502 53.9899 60.541 50.7914 67.8473C43.966 83.4381 37.1642 99.0393 30.1549 114.691C29.7187 114.724 29.2827 114.761 28.8463 114.79C23.5288 115.144 18.9395 119.526 18.4213 124.745C17.8495 130.502 21.2861 135.79 26.5555 137.261C31.6365 138.68 36.6057 136.826 39.4618 132.447C42.2248 128.211 41.8855 122.8 38.6078 118.79C38.2568 118.36 37.9173 117.921 37.6664 117.325C38.826 114.631 39.9725 111.932 41.1473 109.246C46.1188 97.8769 51.0878 86.5069 56.0792 75.1468C59.874 66.5097 63.744 57.9054 67.4947 49.2494C69.1876 45.3427 72.042 43.2725 76.3267 43.2421C77.1291 47.044 79.2426 49.8362 82.7139 51.6096C85.0316 52.7936 87.4864 52.8867 90.0725 52.7631ZM86.5793 131.183C86.3221 131.484 86.0667 131.786 85.8076 132.086C83.4742 134.782 82.61 137.974 83.1854 141.406C84.5795 149.72 94.0811 153.698 101.054 148.96C101.964 148.341 102.747 147.535 103.751 146.9C105.313 147.129 106.875 147.55 108.437 147.552C115.36 147.559 120.911 144.916 124.186 138.593C125.749 135.576 126.901 132.344 128.202 129.194C135.945 110.439 143.678 91.6805 151.605 72.8815C154.244 72.4924 156.532 71.4307 158.408 69.4848C162.486 65.2545 162.775 58.5143 159.03 54.1508C155.028 49.4871 148.395 48.6879 143.436 52.2719C138.632 55.7439 137.282 62.41 140.486 67.4793C141.319 68.798 142.573 69.851 143.549 71.2061C143.468 71.4295 143.395 71.6561 143.306 71.8758C139.38 81.4851 135.465 91.0988 131.522 100.701C127.081 111.515 122.532 122.285 118.197 133.141C116.052 138.51 110.916 140.695 106.077 139.105C105.835 134.651 103.566 131.473 99.8355 129.228C98.0068 128.127 95.9505 127.984 93.8284 127.729C90.9326 121.736 88.0328 115.745 85.1424 109.749C83.1637 105.644 81.2018 101.532 79.2244 97.4266C78.4779 95.8769 77.1946 95.0729 75.5086 95.1166C73.9163 95.1579 72.7306 95.993 72.0771 97.4738C71.4696 98.8504 71.7426 100.174 72.3733 101.478C77.1358 111.328 81.8897 121.183 86.5793 131.183ZM119.226 107.895C123.088 98.8052 126.95 89.7155 130.81 80.6253C131.88 78.1061 132.983 75.6002 134.006 73.0617C135.23 70.0199 133.251 67.0294 130.229 67.3266C128.453 67.5011 127.431 68.6315 126.759 70.2031C121.674 82.0899 116.579 93.9725 111.472 105.85C110.933 107.103 110.047 108.038 108.671 108.408C106.402 109.018 104.543 107.945 103.345 105.354C98.335 94.5149 93.3384 83.6699 88.2833 72.8524C87.7052 71.6154 86.9645 70.3581 86.0022 69.4126C79.6169 63.1394 69.7059 65.1595 66.1233 73.3782C64.1105 77.9956 62.032 82.5844 60.008 87.197C56.1671 95.9503 52.3221 104.702 48.5468 113.484C48.1621 114.378 48.0081 115.507 48.1544 116.465C48.4048 118.105 49.7878 119.159 51.4046 119.316C53.2681 119.498 54.6966 118.628 55.5305 116.74C58.9123 109.085 62.2779 101.423 65.6556 93.7668C68.2021 87.9943 70.7624 82.228 73.3068 76.4546C74.0443 74.781 75.2408 73.7948 77.1224 73.7048C79.0685 73.6117 80.3769 74.5054 81.195 76.2198C81.4169 76.6851 81.6678 77.1368 81.8827 77.6051C86.7488 88.2061 91.6108 98.809 96.4755 109.411C98.6257 114.097 103.642 116.941 108.706 116.299C113.827 115.65 117.307 112.885 119.226 107.895Z" fill="#FCFBFD"/>
<path d="M119.185 107.976C117.307 112.885 113.828 115.65 108.706 116.299C103.642 116.941 98.6258 114.097 96.4756 109.411C91.611 98.8093 86.7489 88.2064 81.8829 77.6053C81.6679 77.137 81.4171 76.6853 81.1951 76.2201C80.3771 74.5057 79.0687 73.6119 77.1226 73.705C75.241 73.795 74.0445 74.7812 73.3069 76.4548C70.7626 82.2282 68.2022 87.9946 65.6557 93.767C62.2781 101.424 58.9124 109.085 55.5307 116.74C54.6967 118.628 53.2683 119.498 51.4048 119.316C49.788 119.159 48.405 118.106 48.1546 116.466C48.0083 115.508 48.1623 114.379 48.5469 113.484C52.3223 104.702 56.1672 95.9506 60.0082 87.1973C62.0322 82.5847 64.1107 77.9959 66.1235 73.3785C69.7061 65.1598 79.617 63.1397 86.0023 69.4129C86.9647 70.3584 87.7054 71.6157 88.2835 72.8527C93.3386 83.6702 98.3352 94.5151 103.345 105.354C104.543 107.946 106.402 109.019 108.671 108.408C110.047 108.039 110.933 107.104 111.472 105.85C116.579 93.9728 121.674 82.0901 126.759 70.2033C127.431 68.6317 128.454 67.5014 130.229 67.3268C133.251 67.0297 135.231 70.0202 134.006 73.062C132.983 75.6004 131.881 78.1064 130.811 80.6256C126.95 89.7158 123.088 98.8055 119.185 107.976Z" fill="#212D77"/>
<path d="M30.3525 114.636C37.164 99.0393 43.9659 83.4382 50.7913 67.8474C53.9898 60.5411 57.2237 53.2502 60.4598 45.9605C63.7816 38.4779 69.6303 34.9814 77.8344 35.1674C76.4772 37.6571 75.9805 40.2621 76.265 43.0348C72.0419 43.2726 69.1875 45.3428 67.4946 49.2495C63.7438 57.9055 59.8739 66.5098 56.0791 75.1468C51.0877 86.507 46.1187 97.877 41.1472 109.246C39.9724 111.932 38.8258 114.631 37.5629 117.41C35.3478 115.902 32.996 114.907 30.3525 114.636Z" fill="#212D77"/>
<path d="M106.105 139.303C110.916 140.695 116.052 138.51 118.196 133.141C122.532 122.285 127.081 111.515 131.521 100.701C135.464 91.0988 139.379 81.4851 143.305 71.8758C143.395 71.6561 143.468 71.4295 143.647 71.0913C146.105 72.3984 148.661 73.0466 151.413 72.923C143.677 91.6804 135.945 110.439 128.201 129.194C126.9 132.344 125.748 135.576 124.186 138.593C120.91 144.916 115.359 147.559 108.436 147.552C106.874 147.55 105.313 147.129 103.677 146.774C105.16 144.445 106.074 142.024 106.105 139.303Z" fill="#212D77"/>
<path d="M30.2534 114.663C32.9957 114.906 35.3475 115.902 37.5156 117.491C37.9169 117.921 38.2564 118.36 38.6074 118.79C41.8851 122.8 42.2244 128.211 39.4614 132.447C36.6053 136.826 31.6361 138.68 26.5551 137.261C21.2857 135.79 17.8491 130.502 18.4209 124.745C18.9392 119.526 23.5284 115.144 28.8459 114.79C29.2824 114.761 29.7183 114.724 30.2534 114.663Z" fill="#F13A3D"/>
<path d="M106.091 139.204C106.074 142.024 105.16 144.445 103.596 146.732C102.746 147.535 101.963 148.341 101.053 148.96C94.0806 153.698 84.579 149.72 83.1849 141.406C82.6096 137.974 83.4737 134.782 85.8071 132.086C86.0663 131.786 86.3216 131.484 86.6929 131.099C88.8154 129.174 91.2326 128.256 93.8899 127.881C95.95 127.984 98.0063 128.127 99.835 129.228C103.565 131.473 105.834 134.651 106.091 139.204Z" fill="#F23A3D"/>
<path d="M151.51 72.9024C148.662 73.0467 146.106 72.3986 143.69 71.0015C142.573 69.8512 141.319 68.7981 140.486 67.4794C137.281 62.4101 138.632 55.744 143.436 52.272C148.395 48.688 155.028 49.4872 159.03 54.151C162.775 58.5144 162.486 65.2546 158.408 69.4849C156.532 71.4308 154.244 72.4925 151.51 72.9024Z" fill="#F23A3C"/>
<path d="M76.2958 43.1384C75.9806 40.262 76.4772 37.657 77.9377 35.1788C79.114 33.9868 80.1587 32.6821 81.4838 31.7969C85.9314 28.8258 91.9496 29.5115 95.6977 33.2579C99.5647 37.1233 100.191 42.9413 97.2389 47.5536C97.0902 47.7861 96.9712 48.0377 96.7416 48.3813C94.8467 50.5336 92.5788 51.8317 89.9977 52.6275C87.4863 52.8867 85.0315 52.7936 82.7138 51.6096C79.2425 49.8362 77.129 47.044 76.2958 43.1384Z" fill="#F2393B"/>
<path d="M90.0352 52.6954C92.5789 51.8318 94.8468 50.5336 96.7164 48.4661C102.051 59.1694 107.317 69.8869 112.565 80.6138C112.856 81.2096 113.067 81.8699 113.179 82.5236C113.565 84.7629 112.638 86.3092 110.589 86.9678C108.655 87.5895 106.829 86.7562 105.868 84.7948C101.679 76.2417 97.4995 67.6833 93.3022 59.1339C92.253 56.9969 91.1505 54.886 90.0352 52.6954Z" fill="#212D77"/>
<path d="M93.8591 127.805C91.2328 128.256 88.8156 129.174 86.7267 131.026C81.8895 121.183 77.1356 111.329 72.373 101.478C71.7423 100.174 71.4693 98.8505 72.0769 97.4739C72.7304 95.9931 73.916 95.1579 75.5084 95.1167C77.1943 95.073 78.4776 95.877 79.2241 97.4267C81.2016 101.532 83.1634 105.645 85.1422 109.749C88.0326 115.745 90.9323 121.736 93.8591 127.805Z" fill="#212D77"/>
</g>
<defs>
<clipPath id="clip0_161_61">
<rect width="180" height="180" fill="white"/>
</clipPath>
</defs>
</svg>
